<svg version="1.1" xmlns="http://www.w3.org/2000/svg" xmlns:xlink="http://www.w3.org/1999/xlink" width="103.55601" height="85.70527" viewBox="0,0,103.55601,85.70527"><g transform="translate(-167.53369,-139.10973)"><g data-paper-data="{&quot;isPaintingLayer&quot;:true}" fill-rule="nonzero" stroke-linejoin="miter" stroke-miterlimit="10" stroke-dasharray="" stroke-dashoffset="0" style="mix-blend-mode: normal"><path d="M211.33427,155.1458c0,8.85647 -7.17959,16.03606 -16.03606,16.03606c-8.85647,0 -16.03606,-7.17959 -16.03606,-16.03606c0,-8.85647 7.17959,-16.03606 16.03606,-16.03606c8.85647,0 16.03606,7.17959 16.03606,16.03606z" fill="#9966ff" stroke="none" stroke-width="0" stroke-linecap="butt"/><path d="M271.08971,160.20982c0,10.72099 -8.53993,19.41208 -19.07448,19.41208c-10.53454,0 -19.07448,-8.69108 -19.07448,-19.41208c0,-10.72099 8.53993,-19.41208 19.07448,-19.41208c10.53454,0 19.07448,8.69108 19.07448,19.41208z" fill="#9966ff" stroke="none" stroke-width="0" stroke-linecap="butt"/><path d="M167.78369,190.42514l35.78574,34.09774l36.79855,-14.85446" fill="none" stroke="#000000" stroke-width="0.5" stroke-linecap="round"/></g></g></svg>